<?xml version="1.0" encoding="iso-8859-1"?>
<!-- Uploaded to: SVG Repo, www.svgrepo.com, Generator: SVG Repo Mixer Tools -->
<svg height="800px" width="800px" version="1.1" id="Layer_1" xmlns="http://www.w3.org/2000/svg" xmlns:xlink="http://www.w3.org/1999/xlink" 
	 viewBox="0 0 511.999 511.999" xml:space="preserve">
<path style="fill:#493123;" d="M382.225,161.71l-12.648-12.648L268.043,250.597v-76.686h-17.886v94.572l-48.059,48.059v-60.275
	h-17.886v78.162L123.43,395.21v-60.275h-17.886v78.162l-83.635,83.635c-3.492,3.493-3.492,9.155,0,12.648
	c1.747,1.746,4.035,2.619,6.324,2.619s4.578-0.873,6.324-2.619l44.105-44.105h78.554v-17.886H96.546l48.255-48.255h94.571v-17.886
	h-76.685l122.476-122.475h78.554v-17.886h-60.668L382.225,161.71z"/>
<g>
	<ellipse style="fill:#992B12;" cx="184.631" cy="456.328" rx="38.591" ry="27.053"/>
	<ellipse style="fill:#992B12;" cx="114.483" cy="307.524" rx="27.053" ry="38.591"/>
	<ellipse style="fill:#992B12;" cx="193.15" cy="228.857" rx="27.053" ry="38.591"/>
	<ellipse style="fill:#992B12;" cx="391.131" cy="249.829" rx="38.591" ry="27.053"/>
</g>
<g>
	<path style="fill:#ADBF3B;" d="M396.765,81.421c-24.481,24.481-38.824,54.342-42.107,82.559l12.649,12.648
		c28.217-3.283,58.077-17.626,82.558-42.107c28.395-28.395,43.166-64.031,42.839-95.94C460.795,38.256,425.16,53.027,396.765,81.421
		z"/>
	<path style="fill:#ADBF3B;" d="M259.098,0c-22.794,22.332-37.548,57.974-37.548,98.131c0,34.621,10.973,65.879,28.605,88.152
		h17.886c17.63-22.273,28.605-53.531,28.605-88.152C296.647,57.974,281.892,22.332,259.098,0z"/>
	<path style="fill:#ADBF3B;" d="M315.153,352.643c-34.621,0-65.879,10.973-88.152,28.605v17.886
		c22.273,17.632,53.531,28.605,88.152,28.605c40.157,0,75.799-14.754,98.131-37.548
		C390.953,367.397,355.311,352.643,315.153,352.643z"/>
</g>
</svg>